<svg xmlns="http://www.w3.org/2000/svg" xmlns:xlink="http://www.w3.org/1999/xlink" viewBox="312.57 283.47 417.37 654.78" preserveAspectRatio="xMidYMid meet" style="width: 100%;height: 100%;"><defs><clipPath id="__lottie_element_40"><rect width="1080" height="1080" x="0" y="0"></rect></clipPath></defs><g clip-path="url(#__lottie_element_40)"><g transform="matrix(0.9996050000190735,0.028148040175437927,-0.028148040175437927,0.9996050000190735,366.36627197265625,613.1360473632812)" opacity="1" style="display: block;"><g opacity="1" transform="matrix(1,0,0,1,73.86699676513672,159.37399291992188)"><path stroke-linecap="round" stroke-linejoin="miter" fill-opacity="0" stroke-miterlimit="10" stroke="rgb(255,110,136)" stroke-opacity="1" stroke-width="18" d=" M64.86699676513672,-150.37399291992188 C64.86699676513672,-150.37399291992188 155.82891845703125,-25.334362030029297 175.72010803222656,138.75387573242188"></path></g></g><g transform="matrix(1,0,0,1,361.7139892578125,913.1430053710938)" opacity="1" style="display: block;"><g opacity="1" transform="matrix(1,0,0,1,0,0)"><path stroke-linecap="round" stroke-linejoin="miter" fill-opacity="0" stroke-miterlimit="10" stroke="rgb(0,0,0)" stroke-opacity="1" stroke-width="18" d=" M247.65968322753906,8.701622009277344 C247.65968322753906,8.701622009277344 259.18353271484375,5.930882453918457 267.26220703125,-1.294045329093933"></path></g></g><g transform="matrix(0.9878510236740112,0,0,1,539.772216796875,546)" opacity="0.5" style="display: block;"><g opacity="1" transform="matrix(1,0,0,1,0,0)"><path fill="rgb(52,52,52)" fill-opacity="1" d=" M-230,392.25 C-230,392.25 192.5,392.25 192.5,392.25"></path><path stroke-linecap="round" stroke-linejoin="miter" fill-opacity="0" stroke-miterlimit="4" stroke="rgb(0,0,0)" stroke-opacity="1" stroke-width="14" d=" M-230,392.25 C-230,392.25 192.5,392.25 192.5,392.25"></path></g></g><g transform="matrix(-0.6764171719551086,0.1362302303314209,0.1362302303314209,0.6764171719551086,729.6110229492188,270.13897705078125)" opacity="1" style="display: block;"><g opacity="1" transform="matrix(1,0,0,1,273,334.4280090332031)"><path stroke-linecap="round" stroke-linejoin="miter" fill-opacity="0" stroke-miterlimit="10" stroke="rgb(244,174,61)" stroke-opacity="1" stroke-width="88" d=" M111.97022247314453,-121.21023559570312 C111.97022247314453,-121.21023559570312 166.10890197753906,-27.26527976989746 264.0204772949219,52.64851760864258"></path></g></g><g transform="matrix(0.4398256540298462,0.01238512247800827,-0.01238512247800827,0.4398256540298462,387.45916748046875,281.63934326171875)" opacity="1" style="display: block;"><g opacity="1" transform="matrix(1,0,0,1,217.4040069580078,352.72198486328125)"><path fill="rgb(249,223,179)" fill-opacity="1" d=" M-46.04899978637695,-273.29998779296875 C-46.04899978637695,-273.29998779296875 -117.84600067138672,-253.86199951171875 -117.84600067138672,-253.86199951171875 C-117.84600067138672,-253.86199951171875 -217.1540069580078,-97.73699951171875 -217.1540069580078,-97.73699951171875 C-217.1540069580078,-97.73699951171875 -116.6989974975586,273.29998779296875 -116.6989974975586,273.29998779296875 C-116.6989974975586,273.29998779296875 217.1540069580078,182.91299438476562 217.1540069580078,182.91299438476562 C217.1540069580078,182.91299438476562 116.697998046875,-188.12399291992188 116.697998046875,-188.12399291992188 C116.697998046875,-188.12399291992188 -46.04899978637695,-273.29998779296875 -46.04899978637695,-273.29998779296875z"></path></g><g opacity="1" transform="matrix(1,0,0,1,85.802001953125,167.20399475097656)"><path fill="rgb(199,147,150)" fill-opacity="1" d=" M46.91299819946289,-77.05699920654297 C46.91299819946289,-77.05699920654297 85.552001953125,-87.78199768066406 85.552001953125,-87.78199768066406 C85.552001953125,-87.78199768066406 13.755000114440918,-68.34300231933594 13.755000114440918,-68.34300231933594 C13.755000114440918,-68.34300231933594 -85.552001953125,87.78199768066406 -85.552001953125,87.78199768066406 C-85.552001953125,87.78199768066406 63.685001373291016,47.37799835205078 63.685001373291016,47.37799835205078 C63.685001373291016,47.37799835205078 46.91299819946289,-77.05699920654297 46.91299819946289,-77.05699920654297z"></path></g><g opacity="1" transform="matrix(1,0,0,1,217.4040069580078,395.30999755859375)"><path fill="rgb(244,174,61)" fill-opacity="1" d=" M217.1540069580078,140.32400512695312 C217.1540069580078,140.32400512695312 -116.697998046875,230.71200561523438 -116.697998046875,230.71200561523438 C-116.697998046875,230.71200561523438 -217.1540069580078,-140.32400512695312 -217.1540069580078,-140.32400512695312 C-217.1540069580078,-140.32400512695312 116.6969985961914,-230.71200561523438 116.6969985961914,-230.71200561523438 C116.6969985961914,-230.71200561523438 217.1540069580078,140.32400512695312 217.1540069580078,140.32400512695312z"></path></g><g opacity="1" transform="matrix(1,0,0,1,289.40399169921875,661.2470092773438)"><path fill="rgb(172,164,182)" fill-opacity="1" d=" M182.02099609375,10.559000015258789 C182.02099609375,10.559000015258789 -151.83099365234375,100.9469985961914 -151.83099365234375,100.9469985961914 C-151.83099365234375,100.9469985961914 -182.02000427246094,-10.5600004196167 -182.02000427246094,-10.5600004196167 C-182.02000427246094,-10.5600004196167 151.83099365234375,-100.947998046875 151.83099365234375,-100.947998046875 C151.83099365234375,-100.947998046875 182.02099609375,10.559000015258789 182.02099609375,10.559000015258789z"></path></g><g opacity="1" transform="matrix(1,0,0,1,191.77699279785156,687.677978515625)"><path fill="rgb(148,117,172)" fill-opacity="1" d=" M84.3949966430664,36.99100112915039 C84.3949966430664,36.99100112915039 -54.20500183105469,74.51599884033203 -54.20500183105469,74.51599884033203 C-54.20500183105469,74.51599884033203 -84.3949966430664,-36.99100112915039 -84.3949966430664,-36.99100112915039 C-84.3949966430664,-36.99100112915039 54.20500183105469,-74.51599884033203 54.20500183105469,-74.51599884033203 C54.20500183105469,-74.51599884033203 84.3949966430664,36.99100112915039 84.3949966430664,36.99100112915039z"></path></g><g opacity="1" transform="matrix(1,0,0,1,316.0150146484375,784.6849975585938)"><path fill="rgb(255,110,136)" fill-opacity="1" d=" M43.07400131225586,82.86799621582031 C43.07400131225586,82.86799621582031 17.30500030517578,89.84500122070312 17.30500030517578,89.84500122070312 C-67.77100372314453,112.87899780273438 -155.40899658203125,62.58300018310547 -178.44200134277344,-22.490999221801758 C-178.44200134277344,-22.490999221801758 155.40899658203125,-112.87899780273438 155.40899658203125,-112.87899780273438 C178.4429931640625,-27.804000854492188 128.1479949951172,59.834999084472656 43.07400131225586,82.86799621582031z"></path></g><g opacity="1" transform="matrix(1,0,0,1,125.09600067138672,420.302001953125)"><path fill="rgb(255,150,0)" fill-opacity="1" d=" M124.84600067138672,165.31500244140625 C124.84600067138672,165.31500244140625 -24.392000198364258,205.72000122070312 -24.392000198364258,205.72000122070312 C-24.392000198364258,205.72000122070312 -124.84600067138672,-165.3159942626953 -124.84600067138672,-165.3159942626953 C-124.84600067138672,-165.3159942626953 24.389999389648438,-205.72000122070312 24.389999389648438,-205.72000122070312 C24.389999389648438,-205.72000122070312 124.84600067138672,165.31500244140625 124.84600067138672,165.31500244140625z"></path></g><g opacity="1" transform="matrix(1,0,0,1,275.68701171875,606.1389770507812)"><path fill="rgb(248,255,224)" fill-opacity="1" d=" M181.73500061035156,-21.711000442504883 C181.73500061035156,-21.711000442504883 -167.86500549316406,72.94000244140625 -167.86500549316406,72.94000244140625 C-182.01100158691406,76.7699966430664 -196.5850067138672,68.40799713134766 -200.4149932861328,54.262001037597656 C-204.24400329589844,40.1150016784668 -195.88099670410156,25.54199981689453 -181.73500061035156,21.711999893188477 C-181.73500061035156,21.711999893188477 167.86500549316406,-72.94000244140625 167.86500549316406,-72.94000244140625 C182.01100158691406,-76.77100372314453 196.58399963378906,-68.40599822998047 200.4149932861328,-54.25899887084961 C204.24400329589844,-40.112998962402344 195.8820037841797,-25.541000366210938 181.73500061035156,-21.711000442504883z"></path></g><g opacity="1" transform="matrix(1,0,0,1,305.6199951171875,716.697021484375)"><path fill="rgb(248,255,224)" fill-opacity="1" d=" M181.73500061035156,-21.711999893188477 C181.73500061035156,-21.711999893188477 -167.86500549316406,72.93900299072266 -167.86500549316406,72.93900299072266 C-182.01100158691406,76.7699966430664 -196.5850067138672,68.40699768066406 -200.4149932861328,54.2599983215332 C-204.24400329589844,40.11399841308594 -195.88099670410156,25.541000366210938 -181.73500061035156,21.711000442504883 C-181.73500061035156,21.711000442504883 167.86500549316406,-72.94100189208984 167.86500549316406,-72.94100189208984 C182.01100158691406,-76.7699966430664 196.5850067138672,-68.40699768066406 200.41400146484375,-54.26100158691406 C204.24400329589844,-40.11399841308594 195.88099670410156,-25.54199981689453 181.73500061035156,-21.711999893188477z"></path></g><g opacity="1" transform="matrix(1,0,0,1,126.37200164794922,49.52299880981445)"><path fill="rgb(81,70,105)" fill-opacity="1" d=" M45.34400177001953,29.799999237060547 C45.34400177001953,29.799999237060547 -26.57900047302246,49.27299880981445 -26.57900047302246,49.27299880981445 C-26.57900047302246,49.27299880981445 -40.62799835205078,-2.617000102996826 -40.62799835205078,-2.617000102996826 C-45.34400177001953,-20.038000106811523 -33.06700134277344,-38.518001556396484 -13.206999778747559,-43.895999908447266 C6.65500020980835,-49.27299880981445 26.57900047302246,-39.51100158691406 31.295000076293945,-22.089000701904297 C31.295000076293945,-22.089000701904297 45.34400177001953,29.799999237060547 45.34400177001953,29.799999237060547z"></path></g></g><g transform="matrix(0.9996050000190735,0.028148040175437927,-0.02722485177218914,0.9668203592300415,444.2331848144531,584.0873413085938)" opacity="1" style="display: block;"><g opacity="1" transform="matrix(1,0,0,1,122.89900207519531,192.73199462890625)"><path stroke-linecap="round" stroke-linejoin="miter" fill-opacity="0" stroke-miterlimit="10" stroke="rgb(255,110,136)" stroke-opacity="1" stroke-width="18" d=" M-74.3550033569336,-140.4250030517578 C-74.3550033569336,-140.4250030517578 -53.91109848022461,-34.28727722167969 -173.74981689453125,134.691162109375"></path></g></g><g transform="matrix(1,0,0,1,598.5709838867188,853.9989624023438)" opacity="1" style="display: block;"><g opacity="1" transform="matrix(1,0,0,1,54.856998443603516,56.571998596191406)"><path stroke-linecap="round" stroke-linejoin="miter" fill-opacity="0" stroke-miterlimit="10" stroke="rgb(0,0,0)" stroke-opacity="1" stroke-width="18" d=" M-270.0580749511719,-10.2195405960083 C-270.0580749511719,-10.2195405960083 -250.26637268066406,-2.3562872409820557 -250.26637268066406,-2.3562872409820557"></path></g></g><g transform="matrix(0.7796921133995056,0.021955478936433792,-0.021955478936433792,0.7796921133995056,169.7119140625,315.9991455078125)" opacity="1" style="display: block;"><g opacity="1" transform="matrix(1,0,0,1,273,334.4280090332031)"><path stroke-linecap="round" stroke-linejoin="miter" fill-opacity="0" stroke-miterlimit="10" stroke="rgb(255,150,0)" stroke-opacity="1" stroke-width="88" d=" M111.97022247314453,-121.21023559570312 C111.97022247314453,-121.21023559570312 166.10890197753906,-27.26527976989746 264.0204772949219,52.64851760864258"></path></g></g><g transform="matrix(0.4361216425895691,0.05829157680273056,-0.05829157680273056,0.4361216425895691,508.1023254394531,442.5587158203125)" opacity="1" style="display: block;"><g opacity="1" transform="matrix(1,0,0,1,54.369998931884766,37.29100036621094)"><path stroke-linecap="round" stroke-linejoin="round" fill-opacity="0" stroke="rgb(81,70,105)" stroke-opacity="1" stroke-width="8" d=" M-34.369998931884766,1.3200000524520874 C-24.625999450683594,12.170000076293945 -9.29699993133545,17.291000366210938 5.739999771118164,13.220000267028809 C20.777999877929688,9.14900016784668 31.43000030517578,-3.00600004196167 34.369998931884766,-17.290000915527344"></path></g></g><g transform="matrix(0.4361216425895691,0.05829157680273056,-0.05829157680273056,0.4361216425895691,490.2190246582031,420.3613586425781)" opacity="1" style="display: block;"><g opacity="1" transform="matrix(1,0,0,1,15.097999572753906,15.098999977111816)"><path fill="rgb(81,70,105)" fill-opacity="1" d=" M-12.916000366210938,3.496999979019165 C-14.847999572753906,-3.63700008392334 -10.630999565124512,-10.984999656677246 -3.497999906539917,-12.916000366210938 C3.63700008392334,-14.847999572753906 10.987000465393066,-10.630999565124512 12.918000221252441,-3.497999906539917 C14.848999977111816,3.63700008392334 10.630999565124512,10.984999656677246 3.496999979019165,12.916000366210938 C-3.635999917984009,14.847999572753906 -10.984000205993652,10.630000114440918 -12.916000366210938,3.496999979019165z"></path></g></g><g transform="matrix(0.4361216425895691,0.05829157680273056,-0.05829157680273056,0.4361216425895691,540.1336669921875,413.7583312988281)" opacity="1" style="display: block;"><g opacity="1" transform="matrix(1,0,0,1,15.097999572753906,15.098999977111816)"><path fill="rgb(81,70,105)" fill-opacity="1" d=" M-12.916999816894531,3.496999979019165 C-14.847999572753906,-3.63700008392334 -10.631999969482422,-10.986000061035156 -3.496999979019165,-12.916000366210938 C3.635999917984009,-14.847999572753906 10.984999656677246,-10.630999565124512 12.916999816894531,-3.497999906539917 C14.847999572753906,3.63700008392334 10.630999565124512,10.984999656677246 3.496000051498413,12.916000366210938 C-3.63700008392334,14.847999572753906 -10.984999656677246,10.630000114440918 -12.916999816894531,3.496999979019165z"></path></g></g><g transform="matrix(0.4361216425895691,0.05829157680273056,-0.05829157680273056,0.4361216425895691,408.8778381347656,357.5509338378906)" opacity="1" style="display: block;"><g opacity="1" transform="matrix(1,0,0,1,217.2469940185547,132.1009979248047)"><path stroke-linecap="round" stroke-linejoin="round" fill-opacity="0" stroke="rgb(195,255,0)" stroke-opacity="1" stroke-width="11" d=" M51.2239990234375,-13.869000434875488 C60.415000915527344,20.07900047302246 44.93199920654297,53.808998107910156 16.642000198364258,61.46900177001953 C-11.64900016784668,69.12799835205078 -42.03200149536133,47.814998626708984 -51.2239990234375,13.868000030517578 C-60.415000915527344,-20.079999923706055 -44.930999755859375,-53.808998107910156 -16.642000198364258,-61.46900177001953 C11.64799976348877,-69.12799835205078 42.03300094604492,-47.81700134277344 51.2239990234375,-13.869000434875488z"></path></g><g opacity="1" transform="matrix(1,0,0,1,348.2690124511719,96.62799835205078)"><path stroke-linecap="round" stroke-linejoin="round" fill-opacity="0" stroke="rgb(195,255,0)" stroke-opacity="1" stroke-width="11" d=" M51.2239990234375,-13.869000434875488 C60.415000915527344,20.07900047302246 44.93199920654297,53.808998107910156 16.642000198364258,61.46900177001953 C-11.64900016784668,69.12799835205078 -42.03200149536133,47.814998626708984 -51.2239990234375,13.868000030517578 C-60.415000915527344,-20.079999923706055 -44.93199920654297,-53.808998107910156 -16.642000198364258,-61.46900177001953 C11.64799976348877,-69.12799835205078 42.03300094604492,-47.816001892089844 51.2239990234375,-13.869000434875488z"></path></g><g opacity="1" transform="matrix(1,0,0,1,282.75799560546875,114.36399841308594)"><path stroke-linecap="round" stroke-linejoin="round" fill-opacity="0" stroke="rgb(195,255,0)" stroke-opacity="1" stroke-width="11" d=" M-14.286999702453613,3.868000030517578 C-14.286999702453613,3.868000030517578 14.286999702453613,-3.868000030517578 14.286999702453613,-3.868000030517578"></path></g><g opacity="1" transform="matrix(1,0,0,1,96.76200103759766,185.65899658203125)"><path stroke-linecap="round" stroke-linejoin="round" fill-opacity="0" stroke="rgb(195,255,0)" stroke-opacity="1" stroke-width="11" d=" M69.26200103759766,-39.689998626708984 C69.26200103759766,-39.689998626708984 -39.77299880981445,-10.170000076293945 -39.77299880981445,-10.170000076293945 C-58.305999755859375,-5.1519999504089355 -69.26200103759766,13.939000129699707 -64.24500274658203,32.472999572753906 C-64.24500274658203,32.472999572753906 -62.29100036621094,39.689998626708984 -62.29100036621094,39.689998626708984"></path></g></g></g></svg>
